<svg xmlns="http://www.w3.org/2000/svg" width="256" height="256" viewBox="0 0 100 100"><rect width="100" height="100" rx="20" fill="#000000"></rect><path d="M28.37 55.52L28.37 55.52Q28.37 58.07 27.60 60.12Q26.82 62.17 25.30 63.62Q23.77 65.07 21.57 65.87Q19.37 66.67 16.52 66.67L16.52 66.67Q13.67 66.67 11.47 65.87Q9.27 65.07 7.77 63.62Q6.27 62.17 5.50 60.12Q4.72 58.07 4.72 55.52L4.72 55.52L4.72 35.72Q4.97 35.62 5.50 35.50Q6.02 35.37 6.62 35.37L6.62 35.37Q8.77 35.37 8.77 37.22L8.77 37.22L8.77 55.17Q8.77 57.17 9.37 58.67Q9.97 60.17 11.00 61.20Q12.02 62.22 13.45 62.72Q14.87 63.22 16.52 63.22L16.52 63.22Q18.17 63.22 19.60 62.72Q21.02 62.22 22.05 61.20Q23.07 60.17 23.67 58.67Q24.27 57.17 24.27 55.17L24.27 55.17L24.27 35.72Q24.52 35.62 25.05 35.50Q25.57 35.37 26.17 35.37L26.17 35.37Q28.37 35.37 28.37 37.22L28.37 37.22L28.37 55.52ZM59.42 38.97L59.42 38.97Q59.42 39.67 59 40.17Q58.58 40.67 58.02 40.92L58.02 40.92Q56.73 40.02 54.98 39.22Q53.23 38.42 50.42 38.42L50.42 38.42Q48.13 38.42 46.17 39.22Q44.23 40.02 42.77 41.57Q41.33 43.12 40.50 45.47Q39.67 47.82 39.67 50.87L39.67 50.87Q39.67 53.97 40.48 56.27Q41.27 58.57 42.70 60.12Q44.13 61.67 46.13 62.45Q48.13 63.22 50.58 63.22L50.58 63.22Q53.17 63.22 55.10 62.50Q57.02 61.77 58.33 60.77L58.33 60.77Q58.83 60.97 59.27 61.50Q59.73 62.02 59.73 62.72L59.73 62.72Q59.73 63.77 58.52 64.62L58.52 64.62Q57.38 65.42 55.38 66.05Q53.38 66.67 50.27 66.67L50.27 66.67Q47.13 66.67 44.42 65.67Q41.73 64.67 39.75 62.70Q37.77 60.72 36.63 57.77Q35.48 54.82 35.48 50.87L35.48 50.87Q35.48 46.92 36.65 43.95Q37.83 40.97 39.83 38.97Q41.83 36.97 44.50 35.97Q47.17 34.97 50.13 34.97L50.13 34.97Q52.17 34.97 53.90 35.32Q55.63 35.67 56.85 36.25Q58.08 36.82 58.75 37.55Q59.42 38.27 59.42 38.97ZM74.17 63.42L74.17 63.42Q76.28 63.42 77.65 63.00Q79.03 62.57 79.63 62.17L79.63 62.17L79.63 54.92L73.42 55.57Q70.83 55.82 69.58 56.75Q68.33 57.67 68.33 59.47L68.33 59.47Q68.33 61.37 69.77 62.40Q71.22 63.42 74.17 63.42ZM74.13 42.27L74.13 42.27Q78.47 42.27 81.03 44.22Q83.58 46.17 83.58 50.37L83.58 50.37L83.58 62.22Q83.58 63.32 83.15 63.90Q82.72 64.47 81.88 64.97L81.88 64.97Q80.67 65.67 78.70 66.20Q76.72 66.72 74.17 66.72L74.17 66.72Q69.47 66.72 66.90 64.87Q64.33 63.02 64.33 59.52L64.33 59.52Q64.33 56.22 66.47 54.55Q68.63 52.87 72.53 52.47L72.53 52.47L79.63 51.77L79.63 50.37Q79.63 47.87 78.13 46.72Q76.63 45.57 74.08 45.57L74.08 45.57Q71.97 45.57 70.13 46.17Q68.27 46.77 66.83 47.52L66.83 47.52Q66.42 47.17 66.10 46.72Q65.77 46.27 65.77 45.72L65.77 45.72Q65.77 45.02 66.13 44.57Q66.47 44.12 67.22 43.72L67.22 43.72Q68.58 43.02 70.33 42.65Q72.08 42.27 74.13 42.27ZM95.28 65.92L95.28 65.92Q95.03 66.02 94.53 66.15Q94.03 66.27 93.42 66.27L93.42 66.27Q91.28 66.27 91.28 64.47L91.28 64.47L91.28 33.62Q91.53 33.52 92.05 33.40Q92.58 33.27 93.13 33.27L93.13 33.27Q95.28 33.27 95.28 35.07L95.28 35.07L95.28 65.92Z" fill="#ffffff"></path></svg>